<?xml version="1.0" standalone="no"?>
<!DOCTYPE svg PUBLIC "-//W3C//DTD SVG 20010904//EN"
 "http://www.w3.org/TR/2001/REC-SVG-20010904/DTD/svg10.dtd">
<svg version="1.0" xmlns="http://www.w3.org/2000/svg"
 width="1638.000000pt" height="1638.000000pt" viewBox="0 0 1638.000000 1638.000000"
 preserveAspectRatio="xMidYMid meet">
<metadata>
Created by potrace 1.11, written by Peter Selinger 2001-2013
</metadata>
<g transform="translate(0.000000,1638.000000) scale(0.100000,-0.100000)"
fill="#000000" stroke="none">
<path d="M8410 16193 c-14 -3 -29 -9 -34 -14 -6 -5 -18 -9 -28 -9 -22 0 -125
-100 -138 -135 -5 -14 -25 -35 -44 -46 -25 -14 -36 -29 -40 -54 -8 -41 -35
-73 -46 -55 -5 9 -13 9 -25 2 -13 -7 -29 -5 -54 5 -32 14 -38 13 -66 -3 -16
-9 -34 -23 -38 -31 -4 -7 -16 -13 -27 -13 -30 0 -49 -11 -44 -24 10 -26 -83
-72 -152 -74 -21 -1 -40 -6 -42 -11 -12 -36 -67 -86 -105 -96 -60 -16 -154
-80 -173 -118 -9 -17 -39 -55 -68 -83 -88 -87 -178 -197 -196 -240 -10 -23
-45 -68 -79 -99 -36 -35 -68 -76 -80 -106 -12 -26 -43 -75 -70 -109 -27 -34
-66 -95 -87 -136 -20 -41 -41 -74 -45 -74 -5 0 -9 -6 -9 -13 0 -8 -18 -40 -41
-72 -22 -32 -48 -76 -57 -99 -9 -22 -35 -74 -59 -114 -24 -40 -43 -79 -43 -86
0 -7 -7 -19 -15 -26 -30 -25 -95 -201 -95 -257 0 -13 -4 -23 -8 -23 -4 0 -13
-37 -21 -82 -7 -46 -16 -87 -21 -93 -18 -22 -30 -126 -28 -235 1 -65 -5 -167
-14 -235 -23 -171 -33 -371 -33 -665 0 -206 3 -268 17 -320 18 -72 33 -299 21
-315 -4 -6 -21 -19 -38 -29 -17 -11 -24 -21 -17 -24 8 -2 4 -10 -10 -22 -23
-19 -23 -19 -3 -34 17 -14 18 -17 5 -26 -13 -9 -7 -14 13 -11 12 2 8 -27 -5
-40 -26 -24 2 -462 32 -519 6 -11 14 -39 19 -62 5 -24 15 -57 22 -74 11 -27
10 -37 -3 -63 -14 -29 -14 -36 0 -66 17 -38 35 -37 26 1 -5 18 -2 24 10 24 15
0 42 38 38 54 -2 4 1 13 6 20 13 16 8 292 -6 308 -14 18 -15 445 -1 454 6 3 8
22 4 45 -4 21 -2 53 4 71 6 18 11 53 12 78 1 25 8 52 16 61 7 9 13 31 12 50
-1 31 40 161 55 176 3 4 6 21 6 40 0 19 8 46 17 60 10 15 13 28 8 30 -12 4 -7
93 7 110 5 7 7 38 4 70 -2 32 -2 48 0 36 5 -19 12 -23 45 -23 35 0 39 3 39 25
0 14 5 25 10 25 6 0 10 18 10 40 0 33 3 40 20 40 31 0 28 -69 -5 -108 -34 -40
-31 -52 10 -52 28 0 35 4 35 20 0 23 13 26 27 8 15 -20 4 -108 -13 -108 -8 0
-14 7 -14 15 0 11 -11 15 -40 15 -36 0 -40 3 -40 25 0 16 -6 25 -15 25 -11 0
-15 -11 -15 -40 0 -22 4 -40 9 -40 5 0 12 -8 14 -17 4 -17 5 -17 6 0 1 13 10
17 40 17 22 0 41 -5 44 -12 4 -10 7 -10 18 0 7 6 23 12 35 12 19 0 24 7 27 38
3 27 4 25 2 -9 -1 -29 -9 -53 -21 -67 -39 -43 -44 -52 -44 -87 0 -31 -3 -35
-25 -35 -22 0 -25 -4 -25 -40 0 -33 -3 -40 -20 -40 -17 0 -20 -7 -20 -40 0
-33 3 -40 20 -40 21 0 27 -15 10 -25 -5 -3 -10 -17 -10 -30 0 -13 -4 -25 -9
-27 -5 -2 -12 -67 -16 -145 l-7 -143 41 0 c30 0 41 -4 41 -15 0 -12 -14 -15
-65 -15 l-65 0 0 -40 c0 -36 3 -40 25 -40 16 0 25 -6 25 -15 0 -11 11 -15 40
-15 29 0 40 4 40 15 0 11 -11 15 -40 15 -29 0 -40 4 -40 15 0 11 11 15 40 15
29 0 40 -4 40 -15 0 -8 7 -15 15 -15 11 0 15 -11 15 -40 l0 -40 64 0 c42 0 66
4 70 13 5 10 7 10 12 0 3 -7 19 -13 35 -13 23 0 29 -4 29 -21 0 -18 4 -20 28
-15 15 3 66 8 114 11 95 5 169 20 180 38 5 9 10 9 20 -1 7 -7 38 -12 75 -12
47 0 63 -4 63 -14 0 -22 133 -31 193 -12 29 8 47 10 47 4 0 -6 27 -9 71 -6 52
3 75 8 84 21 8 11 26 17 49 17 20 0 36 5 36 10 0 6 14 10 31 10 37 0 129 29
129 41 0 5 9 9 20 9 23 0 88 38 109 64 7 9 21 16 30 16 9 0 27 9 41 20 14 11
32 20 41 20 9 0 28 9 42 20 14 11 32 20 40 20 9 0 19 9 22 20 3 11 17 23 31
26 13 3 24 11 24 16 0 6 7 16 16 22 11 9 16 33 18 92 1 44 6 86 10 93 9 13 15
130 15 284 0 48 4 87 8 87 5 0 14 23 20 50 14 59 5 92 -32 122 -14 11 -23 23
-20 28 14 23 -87 62 -116 45 -17 -11 -77 18 -91 43 -13 25 -53 46 -69 36 -5
-3 -9 -1 -9 5 0 13 -51 28 -140 41 -41 6 -97 18 -123 27 -26 8 -54 12 -62 9
-8 -3 -17 0 -21 5 -3 6 -15 9 -25 6 -11 -3 -19 -1 -19 5 0 5 -38 8 -94 7 -59
-2 -100 2 -108 9 -7 6 -37 14 -66 18 -28 3 -52 10 -52 15 0 5 -36 9 -80 9 -47
0 -80 4 -80 10 0 14 -77 13 -82 -1 -2 -6 -16 -11 -30 -11 -15 0 -29 -7 -32
-14 -3 -8 -18 -14 -33 -14 -17 0 -23 -3 -16 -8 9 -6 7 -12 -7 -25 -25 -21 -40
-22 -40 -2 0 11 -11 15 -38 15 l-39 0 -6 99 c-4 55 -4 106 -1 114 3 9 -4 25
-15 36 -25 25 -27 41 -6 41 17 0 22 55 6 64 -5 3 -11 23 -14 43 -14 92 -23
139 -30 151 -10 16 -34 16 -44 0 -4 -7 -18 -18 -30 -25 -25 -14 -33 -2 -33 53
0 25 -4 34 -17 34 -9 0 -25 7 -35 17 -17 15 -18 15 -19 -3 0 -16 -2 -16 -7 -3
-12 26 -49 69 -61 69 -6 0 -11 7 -11 15 0 8 -5 24 -12 34 -9 15 -9 25 0 46 7
14 12 41 12 58 0 46 21 87 45 88 15 0 16 2 5 6 -24 10 -40 36 -29 49 5 6 6 25
3 43 -5 21 -2 37 8 49 9 9 24 35 34 57 10 22 24 44 31 48 7 4 13 17 13 28 0
12 16 37 35 56 19 19 35 39 35 44 0 4 6 12 14 16 14 9 40 51 41 68 0 6 18 37
39 70 22 33 55 90 74 128 19 37 39 67 44 67 4 0 8 7 8 15 0 8 5 15 10 15 6 0
10 8 10 18 0 9 21 40 46 67 25 28 56 67 70 88 13 20 28 37 32 37 5 0 21 18 38
40 16 21 43 47 61 56 17 10 36 28 42 41 6 13 17 23 24 23 7 0 24 11 37 25 13
14 29 25 35 25 7 0 19 8 28 18 9 10 43 31 76 47 33 15 59 32 58 36 -3 12 82
69 113 76 17 3 30 9 30 14 0 9 78 34 96 31 6 -1 19 9 28 22 10 17 29 27 53 31
21 3 53 13 71 21 18 8 43 14 55 14 12 0 39 9 58 19 22 12 46 17 59 14 13 -4
25 0 31 8 6 11 11 11 20 2 7 -7 20 -9 33 -3 58 22 365 9 438 -19 19 -7 28 -7
32 2 5 9 7 9 12 0 6 -15 64 -18 64 -4 0 14 357 6 423 -9 31 -7 57 -16 57 -20
0 -4 37 -10 83 -13 74 -5 144 -22 157 -38 3 -3 46 -26 95 -50 50 -24 102 -55
116 -69 15 -14 57 -41 95 -60 37 -19 88 -56 113 -81 25 -26 71 -63 101 -82 30
-19 87 -69 125 -112 39 -42 83 -89 98 -103 39 -36 125 -151 176 -236 23 -38
55 -83 72 -100 16 -17 29 -39 29 -48 0 -9 5 -20 10 -23 6 -3 10 -13 10 -21 0
-9 6 -21 13 -29 30 -31 45 -54 49 -72 2 -10 11 -17 21 -15 10 2 17 -4 17 -13
0 -8 5 -15 11 -15 11 0 9 -16 -6 -52 -5 -14 -2 -18 13 -18 13 0 24 -11 33 -32
7 -18 23 -44 35 -56 12 -13 29 -50 38 -83 9 -32 21 -59 26 -59 6 0 10 -12 10
-28 0 -15 13 -54 30 -87 16 -33 30 -65 30 -71 0 -6 7 -25 16 -43 9 -18 18 -49
20 -69 2 -20 6 -48 8 -62 3 -14 5 -32 5 -41 1 -9 10 -26 21 -38 10 -13 24 -38
30 -57 13 -38 26 -44 35 -14 14 43 -30 333 -62 410 -8 19 -13 51 -12 70 2 33
-24 126 -70 250 -12 30 -21 66 -21 79 0 13 -7 49 -16 80 -9 31 -21 74 -27 95
-6 22 -26 69 -44 105 -18 35 -33 77 -33 92 0 15 -4 29 -8 31 -17 6 -72 91 -72
110 0 26 -37 96 -74 140 -61 71 -86 111 -91 147 -4 20 -8 45 -10 56 -2 11 -36
54 -75 95 -67 71 -160 198 -160 219 0 6 -17 23 -37 38 -21 15 -48 38 -61 50
-12 12 -41 28 -65 35 -30 9 -58 29 -96 71 -30 32 -68 65 -85 74 -17 8 -41 24
-53 35 -11 11 -36 24 -55 28 -91 24 -124 36 -140 53 -10 9 -23 17 -28 17 -9 0
-33 19 -98 78 -14 12 -31 22 -38 22 -7 0 -19 3 -28 6 -12 4 -16 0 -16 -15 0
-17 -6 -21 -31 -21 -30 0 -31 0 -27 48 l3 47 -52 9 c-44 8 -54 14 -64 38 -13
32 -25 40 -95 64 -27 9 -58 24 -69 34 -46 43 -100 49 -210 25 -101 -23 -104
-23 -114 -29 -5 -3 -11 0 -14 8 -8 19 -62 27 -211 31 -91 2 -133 0 -138 -8 -5
-9 -10 -9 -20 1 -12 12 -23 13 -68 5z m-1450 -2683 c0 -5 -5 -10 -11 -10 -5 0
-7 5 -4 10 3 6 8 10 11 10 2 0 4 -4 4 -10z m25 -240 c3 -5 -1 -10 -9 -10 -9 0
-16 5 -16 10 0 6 4 10 9 10 6 0 13 -4 16 -10z m89 -267 c4 -9 1 -20 -6 -25
-21 -13 -28 -9 -28 17 0 28 24 34 34 8z m-454 -83 c29 -29 26 -60 -5 -60 -22
0 -25 4 -25 40 0 46 3 47 30 20z m6 -107 c19 -26 17 -33 -11 -33 -26 0 -29 7
-19 34 8 20 14 20 30 -1z m1353 -654 c9 -27 8 -33 -13 -53 -14 -12 -37 -28
-53 -36 -15 -8 -30 -18 -33 -22 -3 -4 -25 -10 -48 -14 -54 -8 -56 10 -7 55 19
17 35 36 35 41 0 5 4 20 10 34 8 23 15 26 54 26 40 0 45 -3 55 -31z m-516 -39
c3 -11 12 -20 21 -20 29 0 17 -15 -14 -17 -27 -2 -30 1 -30 27 0 34 15 40 23
10z m-563 -170 c0 -5 -4 -10 -10 -10 -5 0 -10 5 -10 10 0 6 5 10 10 10 6 0 10
-4 10 -10z m-37 -127 c-13 -2 -33 -2 -45 0 -13 2 -3 4 22 4 25 0 35 -2 23 -4z"/>
<path d="M7760 15840 c0 -5 4 -10 9 -10 6 0 13 5 16 10 3 6 -1 10 -9 10 -9 0
-16 -4 -16 -10z"/>
<path d="M11000 13491 c0 -5 9 -19 20 -32 l19 -24 1 33 c0 25 -4 32 -20 32
-11 0 -20 -4 -20 -9z"/>
<path d="M7040 13380 c0 -22 5 -40 10 -40 6 0 10 18 10 40 0 22 -4 40 -10 40
-5 0 -10 -18 -10 -40z"/>
<path d="M11032 13372 c-2 -41 2 -56 17 -69 19 -16 19 -17 -5 -36 -18 -14 -24
-27 -22 -46 2 -19 -3 -29 -19 -36 -13 -5 -23 -13 -23 -17 0 -13 31 -9 46 6 8
8 14 22 14 30 0 9 7 16 15 16 8 0 18 12 21 28 4 15 13 32 21 37 8 6 10 19 6
33 -5 20 -11 23 -34 18 -27 -5 -28 -4 -32 42 l-3 47 -2 -53z"/>
<path d="M7040 13220 c0 -29 4 -40 15 -40 11 0 15 11 15 40 0 29 -4 40 -15 40
-11 0 -15 -11 -15 -40z"/>
<path d="M10957 13065 c-14 -14 -18 -31 -16 -74 3 -70 9 -92 21 -85 6 4 8 -22
5 -69 -2 -42 -1 -79 3 -84 5 -4 10 -17 12 -28 2 -12 12 -20 26 -21 20 -1 22 3
22 56 0 64 -25 160 -45 176 -15 11 -10 54 6 54 12 0 10 30 -4 64 -12 28 -13
28 -30 11z"/>
<path d="M11111 13054 c0 -11 3 -14 6 -6 3 7 2 16 -1 19 -3 4 -6 -2 -5 -13z"/>
<path d="M9557 12907 c-12 -4 -58 -7 -102 -6 -84 2 -135 -5 -172 -23 -11 -6
-37 -9 -56 -6 -31 3 -36 1 -40 -22 -3 -14 -10 -45 -17 -69 -6 -24 -8 -51 -5
-59 3 -9 1 -18 -4 -21 -12 -8 11 -113 27 -119 7 -2 12 -12 12 -23 0 -10 7 -19
15 -19 8 0 15 -7 15 -15 0 -9 -7 -18 -15 -21 -18 -7 -20 -45 -3 -62 10 -10 8
-12 -12 -10 -20 3 -25 -2 -32 -37 -4 -22 -13 -50 -19 -62 -22 -42 1 -160 39
-201 6 -7 12 -18 12 -23 0 -5 7 -9 15 -9 9 0 20 -10 26 -22 29 -66 73 -118 99
-118 20 0 63 -47 55 -60 -9 -15 12 -12 27 3 18 18 43 7 43 -18 0 -14 6 -19 20
-17 74 13 105 13 119 -1 14 -14 133 -33 143 -24 8 8 -41 77 -54 77 -18 0 -16
19 2 26 8 4 15 13 15 21 0 12 10 14 59 8 80 -9 125 14 177 92 21 32 44 64 50
71 20 20 49 14 85 -18 32 -28 33 -31 17 -44 -30 -23 -21 -36 25 -36 24 0 47
-4 53 -9 15 -14 136 -51 167 -51 30 0 57 20 57 42 0 7 -8 29 -19 48 -10 19
-22 46 -26 59 -27 85 -289 212 -510 246 -45 7 -124 35 -131 46 -3 6 -1 16 6
23 8 11 8 15 -2 18 -9 3 -5 16 15 44 15 22 27 44 27 50 0 5 8 10 18 11 9 1 36
8 59 17 23 9 66 18 95 20 177 16 221 17 228 7 10 -17 62 32 55 51 -7 18 6 29
46 37 27 6 27 6 12 44 -15 37 -33 50 -33 22 0 -21 -23 -19 -43 6 -17 19 -17
21 3 46 26 34 25 43 -4 43 -14 0 -28 5 -32 11 -4 7 -26 9 -58 6 -36 -3 -56 -1
-67 10 -10 8 -41 17 -70 20 -84 9 -387 9 -412 0z m603 -97 c0 -16 -5 -30 -11
-30 -5 0 -9 8 -7 18 1 9 -1 23 -5 30 -5 8 -3 12 7 12 11 0 16 -9 16 -30z
m-860 -260 c0 -5 -4 -10 -10 -10 -5 0 -10 5 -10 10 0 6 5 10 10 10 6 0 10 -4
10 -10z m733 -259 c6 -6 25 -11 42 -11 24 -1 27 -3 14 -10 -10 -6 -28 -6 -45
-1 -16 5 -46 12 -66 16 -21 3 -40 10 -44 16 -8 14 85 4 99 -10z m-444 -91 c3
0 12 -21 20 -47 14 -54 25 -80 43 -105 10 -14 10 -21 -3 -33 -15 -15 -49 -11
-49 6 0 4 -16 11 -37 15 -20 4 -52 17 -71 30 -19 13 -39 24 -45 24 -6 0 -3 8
6 18 10 10 17 25 17 34 0 31 64 72 98 62 8 -2 17 -4 21 -4z"/>
<path d="M11124 12777 c-2 -7 0 -24 5 -38 9 -22 10 -21 10 14 1 37 -5 48 -15
24z"/>
<path d="M11121 12664 c0 -11 3 -14 6 -6 3 7 2 16 -1 19 -3 4 -6 -2 -5 -13z"/>
<path d="M9740 12470 c0 -5 5 -10 10 -10 6 0 10 5 10 10 0 6 -4 10 -10 10 -5
0 -10 -4 -10 -10z"/>
<path d="M11125 12458 c-4 -13 -17 -30 -28 -40 -19 -15 -20 -19 -8 -41 10 -19
11 -33 3 -54 -7 -21 -6 -36 3 -53 13 -24 29 -13 19 14 -3 9 -2 16 3 16 5 0 8
13 5 29 -2 17 3 39 12 53 17 24 22 98 7 98 -5 0 -13 -10 -16 -22z"/>
<path d="M11067 12213 c-4 -3 -7 -22 -7 -42 0 -25 3 -32 9 -22 7 11 10 9 13
-10 2 -16 6 -8 14 29 9 46 9 52 -6 52 -9 0 -20 -3 -23 -7z"/>
<path d="M11057 12084 c-3 -6 -2 -16 4 -24 5 -8 9 -31 10 -50 1 -29 3 -26 10
19 5 30 7 56 4 59 -3 3 -5 -3 -6 -14 0 -19 -1 -19 -8 0 -4 11 -10 15 -14 10z"/>
<path d="M11081 11616 c-19 -22 -3 -116 19 -116 24 0 33 39 19 81 -15 45 -23
53 -38 35z"/>
<path d="M6311 11054 c0 -11 3 -14 6 -6 3 7 2 16 -1 19 -3 4 -6 -2 -5 -13z"/>
<path d="M6391 11044 c0 -11 3 -14 6 -6 3 7 2 16 -1 19 -3 4 -6 -2 -5 -13z"/>
<path d="M6352 11009 c2 -6 8 -10 13 -10 5 0 11 4 13 10 2 6 -4 11 -13 11 -9
0 -15 -5 -13 -11z"/>
<path d="M8197 10960 c-7 -12 -23 -20 -38 -20 -15 0 -32 -7 -40 -16 -7 -9 -21
-13 -33 -10 -12 3 -34 -4 -53 -17 -29 -19 -32 -26 -28 -62 2 -21 1 -44 -3 -50
-9 -13 -9 -104 0 -99 4 3 4 -11 1 -31 -4 -28 -2 -35 11 -35 24 0 20 -14 -16
-49 -24 -23 -28 -31 -15 -31 13 0 17 -9 17 -40 0 -35 -3 -40 -23 -40 -13 0
-27 -3 -30 -7 -13 -13 -107 -41 -107 -32 0 5 -23 9 -50 9 -36 0 -52 4 -56 15
-4 8 -17 15 -30 15 -13 0 -24 4 -24 9 0 31 -218 50 -282 24 -35 -14 -52 -14
-136 -4 -54 7 -125 15 -159 18 -45 3 -63 9 -63 19 0 8 5 14 10 14 6 0 10 18
10 40 0 22 -4 40 -10 40 -5 0 -10 -11 -10 -25 0 -25 -14 -33 -25 -15 -3 6 -35
10 -71 10 -36 0 -64 4 -64 10 0 6 -18 10 -40 10 -29 0 -40 4 -40 15 0 8 7 15
15 15 8 0 15 5 15 11 0 7 -10 9 -26 5 -43 -11 -164 4 -164 20 0 10 -13 14 -40
14 l-40 0 0 -40 c0 -27 5 -43 15 -46 8 -4 15 -10 15 -15 0 -5 -7 -9 -15 -9 -8
0 -15 7 -15 15 0 8 -4 15 -10 15 -5 0 -10 -4 -10 -9 0 -5 -13 -12 -30 -16 -21
-5 -30 -13 -30 -26 0 -29 -19 -23 -26 9 -10 47 -13 52 -31 52 -26 0 -46 -55
-28 -74 8 -7 18 -29 22 -47 7 -25 16 -35 32 -37 13 -2 27 2 31 8 6 9 13 9 28
1 11 -6 34 -11 51 -11 29 0 31 -2 31 -40 0 -37 2 -40 28 -41 15 0 20 -3 12 -6
-8 -3 -24 -14 -35 -24 -20 -17 -47 -20 -61 -6 -4 4 0 7 9 7 27 0 20 17 -9 23
-30 5 -37 -7 -32 -54 5 -42 34 -62 52 -36 13 16 14 16 19 -4 6 -22 27 -18 27
7 0 8 9 14 20 14 17 0 20 -6 19 -42 0 -37 -2 -40 -10 -20 -8 22 -29 23 -29 1
0 -5 -9 -18 -21 -30 -17 -17 -19 -28 -14 -74 4 -29 4 -62 0 -74 -7 -24 -35
-29 -35 -6 0 19 -24 19 -39 1 -7 -8 -14 -44 -16 -80 -4 -64 -4 -66 25 -81 36
-18 43 -66 18 -110 -25 -42 -23 -54 10 -52 l27 2 0 -102 c0 -95 2 -104 23
-118 12 -9 22 -23 22 -32 0 -9 9 -26 20 -38 17 -18 18 -25 8 -52 -13 -34 0
-63 29 -63 20 0 53 -81 57 -136 2 -41 6 -48 34 -60 29 -12 37 -24 33 -48 -3
-15 21 -66 30 -66 5 0 9 5 9 10 0 14 37 12 43 -2 4 -10 8 -9 16 2 9 13 11 13
11 -3 0 -10 -7 -20 -16 -24 -12 -4 -13 -8 -3 -14 11 -6 10 -13 -1 -34 -9 -17
-11 -29 -4 -33 23 -16 56 -109 61 -173 6 -70 10 -78 30 -58 22 22 33 5 18 -25
-10 -19 -12 -33 -6 -39 6 -6 5 -16 -2 -28 -8 -14 -9 -24 -1 -36 7 -11 7 -43
-1 -103 -8 -68 -8 -87 1 -83 7 2 19 -10 28 -28 21 -42 20 -49 -5 -49 -19 0
-20 -5 -17 -70 2 -39 0 -70 -5 -70 -4 0 -6 -41 -5 -91 2 -60 -1 -93 -8 -96 -7
-2 -12 38 -13 129 -1 73 -4 134 -6 136 -2 2 -31 -7 -66 -19 -45 -17 -77 -38
-118 -78 -67 -66 -124 -112 -166 -134 -16 -8 -43 -27 -60 -41 -16 -15 -45 -36
-62 -49 -18 -12 -44 -43 -57 -70 -38 -73 -96 -136 -149 -163 -26 -14 -82 -48
-124 -76 -79 -53 -351 -203 -413 -228 -19 -8 -62 -28 -95 -46 -33 -18 -85 -42
-115 -55 -30 -12 -66 -30 -80 -39 -14 -10 -36 -21 -50 -25 -30 -8 -123 -49
-281 -121 -65 -30 -120 -54 -124 -54 -3 0 -39 -21 -78 -47 -40 -26 -79 -52
-88 -58 -8 -5 -55 -36 -103 -68 -178 -118 -303 -168 -526 -212 -134 -27 -203
-58 -370 -169 -85 -57 -213 -132 -285 -167 -71 -34 -148 -75 -170 -89 -22 -15
-71 -43 -110 -63 -147 -75 -308 -191 -403 -291 -20 -21 -78 -79 -127 -130 -50
-50 -120 -129 -155 -175 -65 -84 -72 -93 -119 -166 -14 -22 -43 -62 -63 -90
-21 -27 -38 -55 -38 -62 0 -6 -4 -13 -9 -15 -7 -3 -91 -135 -91 -144 0 -3 -12
-23 -27 -47 -14 -23 -45 -78 -68 -122 -23 -44 -51 -98 -63 -120 -37 -68 -119
-246 -152 -330 -17 -43 -35 -84 -40 -90 -4 -5 -22 -53 -38 -105 -17 -52 -50
-147 -74 -210 -25 -63 -62 -167 -83 -230 -20 -63 -50 -143 -66 -177 -16 -34
-29 -69 -29 -77 0 -7 -14 -47 -31 -87 -18 -41 -43 -108 -57 -149 -13 -41 -30
-88 -37 -105 -31 -72 -114 -331 -162 -505 -19 -69 -41 -147 -49 -175 -8 -27
-32 -86 -53 -130 -22 -44 -43 -91 -47 -105 -4 -14 -46 -101 -94 -195 -124
-240 -148 -285 -160 -300 -6 -7 -22 -41 -35 -75 -13 -33 -41 -89 -63 -123 -21
-34 -67 -118 -101 -186 -34 -68 -73 -138 -86 -156 -14 -17 -31 -47 -40 -66 -9
-18 -24 -47 -35 -64 -11 -16 -23 -37 -27 -45 -4 -8 -17 -30 -30 -49 -13 -19
-23 -41 -23 -50 0 -9 -15 -39 -33 -66 -19 -28 -44 -77 -56 -110 -12 -33 -34
-80 -49 -105 -33 -56 -79 -166 -102 -245 -9 -33 -31 -92 -48 -130 -16 -39 -42
-108 -57 -155 -14 -47 -33 -100 -41 -118 -8 -18 -14 -46 -14 -62 l0 -30 1580
0 c1119 0 1580 3 1580 11 0 10 -107 130 -122 137 -4 2 -29 31 -56 65 -69 87
-92 109 -137 131 -46 23 -85 55 -85 70 0 14 -104 116 -119 116 -6 0 -11 3 -11
8 0 4 -12 20 -27 36 -14 16 -37 47 -49 70 -64 116 -78 153 -82 215 -8 121 35
184 151 224 66 22 67 23 47 40 -11 9 -20 13 -20 9 0 -4 -4 -2 -8 3 -9 14 -64
49 -77 50 -24 1 -55 17 -55 29 0 14 -97 96 -113 96 -10 0 -91 83 -160 164 -23
27 -55 63 -70 79 -26 29 -27 35 -21 91 9 85 30 125 87 163 81 54 112 59 197
32 41 -13 92 -37 114 -56 94 -75 316 -242 338 -254 21 -11 125 -86 138 -99 14
-14 160 -119 185 -134 17 -9 44 -25 61 -35 17 -10 51 -30 76 -43 45 -24 131
-81 363 -242 116 -80 163 -107 150 -86 -3 6 -13 10 -21 10 -8 0 -14 6 -14 14
0 7 -11 21 -25 30 -14 9 -25 23 -25 31 0 8 -7 15 -15 15 -8 0 -19 9 -25 20 -6
11 -16 20 -22 20 -6 0 -28 20 -50 45 -22 25 -48 45 -58 45 -10 0 -20 9 -23 21
-3 12 -10 18 -16 15 -5 -4 -28 -4 -50 0 -30 5 -41 11 -43 28 -2 11 -9 20 -15
19 -6 -1 -9 5 -7 15 4 16 -12 28 -88 63 -15 7 -32 23 -39 36 -7 12 -21 25 -31
29 -24 7 -52 50 -43 65 5 8 1 9 -14 4 -19 -6 -21 -3 -22 42 -1 35 -3 41 -8 24
-7 -25 -30 -41 -32 -22 -1 6 -2 15 -3 21 0 5 -10 16 -21 24 -20 15 -20 15 0
30 21 16 18 18 -25 20 -18 1 -25 6 -24 19 3 34 -47 74 -101 82 -39 5 -53 11
-60 28 -7 15 -18 21 -35 20 -41 -3 -54 5 -40 22 10 13 7 16 -19 21 -17 4 -31
10 -31 15 0 4 -10 9 -23 11 -12 2 -26 13 -32 26 -6 15 -16 21 -27 18 -10 -2
-18 -1 -18 2 -1 4 -25 25 -55 47 -30 22 -57 47 -60 56 -3 9 -23 30 -45 48 -21
17 -56 57 -77 88 -35 53 -38 63 -38 128 0 60 4 76 29 116 35 55 114 106 178
115 79 11 206 -39 342 -134 45 -31 117 -81 161 -111 88 -60 144 -100 280 -197
50 -35 133 -93 186 -128 52 -34 144 -101 205 -147 113 -87 186 -139 196 -139
3 0 -2 16 -10 35 -9 19 -20 35 -24 35 -4 0 -8 7 -8 15 0 8 -4 15 -10 15 -5 0
-12 17 -16 38 -8 41 -61 102 -89 102 -13 0 -16 6 -13 25 4 20 1 25 -14 25 -11
0 -22 9 -25 20 -3 11 -12 20 -19 20 -8 0 -18 10 -23 23 -5 13 -23 34 -41 48
-17 13 -41 42 -52 64 -11 22 -35 57 -53 77 -17 21 -39 52 -47 70 -9 18 -32 67
-52 108 -41 85 -45 116 -27 183 16 57 78 117 148 143 94 36 192 -16 370 -200
129 -134 241 -268 310 -371 114 -172 263 -371 406 -545 59 -72 114 -147 121
-168 13 -38 23 -97 51 -322 9 -69 24 -170 35 -225 10 -55 23 -134 30 -175 6
-41 15 -94 20 -118 6 -23 10 -57 10 -75 0 -57 28 -169 72 -289 l43 -118 3008
0 c2173 0 3007 3 3007 11 0 18 -41 71 -109 141 -50 50 -82 73 -129 92 -35 14
-70 22 -77 19 -21 -7 -19 4 7 40 30 44 63 74 89 82 16 6 18 9 8 15 -7 5 -17 6
-21 4 -4 -3 -8 -1 -8 4 0 11 35 55 72 89 26 24 34 38 30 56 -2 9 6 29 18 45
12 15 43 61 69 102 27 41 64 89 82 106 19 16 45 53 59 82 20 41 29 50 45 46
14 -4 16 -3 7 4 -19 13 75 156 152 234 31 31 56 59 56 63 0 10 76 118 97 137
10 9 29 31 43 49 14 17 50 43 80 56 46 21 65 24 115 20 33 -3 72 -9 86 -12 22
-6 34 2 85 52 33 32 78 67 99 78 49 23 146 31 204 15 49 -13 126 -84 137 -124
4 -15 15 -28 28 -31 11 -3 43 -9 69 -15 117 -25 161 -60 202 -158 16 -37 32
-71 37 -77 5 -5 43 -28 85 -50 89 -46 134 -102 153 -187 7 -29 16 -143 20
-253 5 -142 12 -217 24 -258 15 -49 16 -66 6 -110 -20 -90 -50 -173 -69 -194
-10 -11 -22 -34 -26 -51 -3 -18 -17 -40 -29 -49 -12 -10 -30 -30 -40 -45 l-18
-28 1671 0 c1293 0 1671 3 1671 12 0 9 3 9 12 0 7 -7 25 -12 40 -12 26 0 28 3
28 40 0 22 -9 59 -20 83 -22 48 -30 93 -15 90 10 -1 11 17 7 70 -1 9 -9 17
-18 17 -13 0 -15 6 -9 28 9 38 6 126 -6 130 -12 5 -12 89 1 94 5 2 6 18 0 42
-4 21 -7 55 -4 75 l4 36 -10 -33 c-6 -17 -17 -32 -25 -32 -8 0 -15 -4 -15 -10
0 -5 4 -10 10 -10 5 0 7 -7 4 -15 -4 -8 -13 -15 -21 -15 -9 0 -11 5 -6 12 4 7
6 25 4 39 -1 19 5 32 21 43 l22 16 -22 0 c-24 0 -29 24 -12 50 8 11 9 9 5 -10
-5 -21 -2 -26 14 -26 25 0 26 11 6 49 -8 15 -9 25 -3 21 7 -5 9 2 4 21 -5 18
-3 31 5 36 10 6 7 13 -11 27 -19 16 -22 23 -13 34 8 9 9 19 3 28 -6 8 -10 32
-10 53 0 20 -4 37 -10 37 -5 0 -10 6 -10 14 0 10 7 12 22 8 18 -4 20 -2 15 19
-4 13 -7 34 -7 47 0 16 -5 22 -17 20 -12 -2 -19 4 -21 19 -4 24 -32 39 -42 22
-6 -8 -9 -8 -14 0 -4 6 -4 11 1 11 4 0 2 4 -6 9 -12 8 -12 12 -2 25 7 9 11 22
8 31 -4 8 -1 17 5 21 8 5 9 -4 5 -29 -5 -30 -2 -39 14 -48 12 -6 23 -8 26 -5
11 11 11 116 1 116 -6 0 -5 6 2 15 12 14 8 113 -6 149 -6 17 -53 14 -64 -4 -8
-12 -10 -9 -10 12 0 15 8 31 18 37 15 9 14 10 -7 11 -20 0 -22 4 -17 24 4 15
1 30 -7 38 -8 7 -14 31 -15 53 -1 22 -6 41 -12 43 -5 2 -11 18 -11 35 -1 18
-3 24 -6 15 -5 -21 -36 -24 -51 -5 -19 23 -25 66 -11 84 12 15 12 16 -2 11
-14 -5 -16 -2 -10 20 11 40 29 38 33 -4 2 -21 9 -39 16 -42 10 -3 11 9 6 55
-9 80 -9 85 0 111 5 16 3 22 -8 22 -9 0 -13 6 -10 13 3 8 -2 20 -11 27 -8 7
-15 19 -15 26 0 8 -6 11 -15 8 -19 -8 -20 -44 -1 -44 8 0 16 -7 20 -15 8 -21
-24 -19 -40 3 -17 22 -17 47 0 61 8 7 12 21 9 31 -5 21 -23 28 -23 10 0 -22
-17 -8 -28 23 -24 68 -3 96 24 32 8 -19 19 -36 24 -36 6 -1 16 -2 23 -3 6 -1
11 -11 10 -23 -2 -17 1 -21 13 -16 10 4 14 13 10 29 -12 45 -26 75 -34 70 -4
-2 -17 11 -30 29 -19 31 -20 35 -6 43 25 14 9 53 -19 48 -13 -2 -20 -9 -18
-17 5 -18 10 -69 6 -69 -1 0 -11 12 -20 27 -18 27 -20 35 -31 106 -5 28 -11
37 -23 35 -13 -3 -16 -15 -14 -66 2 -34 -1 -62 -6 -62 -4 0 -7 11 -6 25 3 19
-1 25 -16 25 -16 0 -19 7 -19 41 0 36 2 40 20 34 14 -4 20 -2 20 8 0 8 9 22
20 32 20 18 20 17 20 -8 0 -15 4 -27 8 -27 5 0 13 -16 18 -37 6 -23 16 -37 27
-39 11 -1 17 3 14 9 -2 7 -12 36 -22 66 -11 34 -24 55 -36 58 -11 3 -19 14
-19 24 0 22 -16 34 -24 17 -3 -7 -2 7 1 32 3 25 9 49 14 54 12 13 12 49 0 42
-5 -3 -12 1 -15 10 -4 9 -2 13 5 8 8 -4 9 1 4 17 -4 13 -9 26 -11 28 -3 3 -33
-3 -61 -12 -7 -2 -14 59 -14 131 0 19 -9 52 -21 73 -14 28 -18 49 -14 73 4 20
2 37 -4 41 -5 3 -7 0 -4 -8 3 -8 1 -18 -5 -22 -7 -3 -11 3 -11 16 0 17 -3 19
-14 10 -10 -9 -12 -19 -5 -39 5 -15 11 -44 14 -66 5 -26 12 -40 26 -43 24 -7
24 -20 0 -35 -18 -11 -18 -15 -7 -38 8 -14 19 -41 25 -61 13 -42 15 -117 2
-104 -12 14 -41 125 -44 172 -1 22 -8 47 -15 55 -6 8 -14 44 -16 79 -3 35 -8
76 -12 92 -6 27 10 40 19 15 3 -9 10 -7 21 7 22 28 20 55 -3 55 -29 0 -52 11
-45 22 3 5 11 4 20 -3 11 -9 14 -7 14 11 0 15 -5 20 -14 17 -22 -9 -58 22 -51
44 4 13 1 21 -10 25 -12 5 -15 15 -12 33 3 14 0 43 -8 63 -7 21 -9 39 -5 40 9
3 13 24 11 53 -2 18 -4 17 -12 -5 -9 -21 -12 -23 -19 -9 -5 9 -11 43 -14 75
-2 33 -11 79 -19 104 -8 25 -17 66 -21 92 -3 27 -8 59 -12 73 -5 19 -2 25 10
25 22 0 20 17 -2 24 -14 5 -18 18 -20 69 -3 73 -10 117 -24 134 -5 7 -7 30 -4
52 3 26 0 50 -9 68 -17 32 -20 113 -5 113 6 0 10 -9 10 -20 0 -11 5 -20 11
-20 11 0 3 78 -12 115 -6 15 -8 11 -8 -19 -1 -46 -12 -43 -13 3 -1 27 -4 31
-27 29 -23 -3 -26 1 -29 30 -3 33 14 45 24 17 11 -28 26 -3 19 31 -5 28 -3 34
11 34 16 0 16 2 -1 20 -20 22 -33 16 -40 -20 -2 -12 -7 -25 -11 -29 -4 -3 -4
2 -1 11 4 11 0 21 -9 26 -13 7 -13 14 -2 50 14 44 28 56 28 23 0 -11 5 -23 10
-26 6 -4 10 16 11 52 2 99 -2 148 -12 151 -5 2 -9 19 -9 37 0 19 -3 36 -7 38
-12 8 -6 -104 6 -116 12 -12 14 -46 5 -71 -10 -27 -24 -7 -17 26 4 22 3 29 -5
24 -6 -4 -9 -13 -5 -21 3 -8 0 -15 -6 -15 -6 0 -11 6 -11 14 0 8 -7 16 -17 18
-13 2 -17 19 -19 100 -1 54 1 97 4 97 20 -3 20 3 2 21 -12 12 -24 19 -28 16
-5 -3 -14 -1 -22 4 -11 7 -11 11 -1 23 8 10 8 17 2 21 -6 4 -10 19 -10 34 1
32 -4 59 -14 68 -4 4 -7 21 -7 37 0 22 4 28 15 23 9 -3 15 0 15 9 0 8 -9 15
-20 15 -28 0 -38 30 -16 46 10 7 16 19 13 26 -4 10 -6 10 -6 1 -1 -7 -10 -13
-22 -13 -15 0 -19 4 -15 16 4 10 -7 40 -24 71 -17 30 -29 57 -26 60 3 3 -4 27
-15 54 -21 54 -25 84 -9 74 14 -9 13 -2 -14 59 -13 29 -27 68 -31 85 -3 17
-11 33 -16 36 -10 7 -12 -28 -2 -39 4 -3 8 -12 9 -19 1 -7 5 -21 10 -32 6 -16
5 -18 -7 -7 -7 6 -19 12 -27 12 -19 0 -7 -55 24 -102 13 -21 24 -46 24 -55 0
-10 7 -36 15 -58 8 -22 14 -48 15 -57 0 -32 -16 -19 -30 22 -7 22 -16 40 -20
40 -4 0 -10 18 -14 40 -3 22 -10 40 -15 40 -9 0 -27 76 -23 93 1 4 -5 10 -13
13 -8 4 -15 18 -15 34 0 16 -5 32 -11 35 -6 4 -8 13 -5 20 3 8 -2 19 -10 25
-8 7 -14 20 -14 29 0 19 -23 88 -33 97 -4 4 -7 18 -7 30 0 13 -4 26 -10 29 -5
3 -10 15 -10 26 0 11 -7 27 -15 35 -8 9 -15 26 -15 38 0 12 -11 46 -25 75 -14
28 -23 56 -20 62 4 5 1 9 -5 9 -6 0 -18 17 -26 38 -8 20 -22 52 -31 70 -10 20
-13 36 -7 40 5 4 15 18 22 31 13 22 11 26 -13 49 -17 16 -30 21 -34 14 -3 -6
-19 -16 -35 -22 -17 -6 -26 -16 -23 -24 4 -9 -2 -12 -19 -8 -13 2 -27 8 -30
13 -3 5 2 6 11 3 11 -5 18 0 22 15 4 15 11 20 23 16 9 -3 23 2 31 11 11 14 11
18 -2 28 -9 6 -22 29 -29 51 -6 22 -27 54 -46 72 -19 18 -34 38 -34 46 0 8
-12 36 -26 62 -21 41 -24 53 -15 74 10 23 10 24 -2 9 -16 -21 -24 -15 -43 31
-18 44 -18 60 2 35 14 -18 15 -18 4 4 -6 12 -15 20 -20 17 -11 -7 -29 25 -23
42 2 6 -1 15 -8 19 -8 4 -9 3 -5 -4 4 -7 5 -12 2 -12 -3 0 -12 15 -21 33 -22
46 -91 121 -104 113 -6 -4 -11 -3 -11 3 0 23 -161 186 -205 207 -19 9 -35 20
-35 25 0 5 -5 9 -10 9 -6 0 -22 11 -36 23 -23 22 -173 107 -187 107 -4 0 -4
-6 -1 -14 7 -19 -18 -26 -34 -10 -7 8 -12 17 -12 21 1 5 -18 13 -42 19 -32 8
-38 12 -23 16 l20 5 -20 7 c-11 4 -37 15 -57 23 -22 9 -47 13 -63 9 -20 -5
-31 -2 -43 12 -11 13 -36 21 -72 25 -94 9 -245 38 -254 48 -6 5 -20 9 -32 9
-13 0 -25 4 -28 9 -4 5 -22 5 -43 1 -21 -5 -40 -5 -43 0 -5 8 -130 28 -216 35
-17 1 -36 5 -42 9 -5 3 -42 17 -82 30 -39 13 -86 36 -105 50 -18 14 -36 26
-38 26 -3 0 -49 30 -102 68 -54 37 -113 77 -132 90 -66 45 -231 102 -292 102
-18 0 -46 7 -63 16 -17 9 -65 18 -107 20 -42 3 -82 6 -88 9 -7 2 -13 -1 -13
-7 0 -6 -9 -4 -22 5 -36 25 -110 64 -138 71 -24 7 -214 93 -271 122 -47 24
-142 44 -214 44 -83 0 -142 24 -175 68 -12 16 -35 32 -50 36 -16 3 -43 18 -62
34 -31 28 -61 46 -218 130 -36 19 -72 40 -80 47 -28 23 -133 75 -151 75 -23 0
-26 -15 -34 -165 -7 -127 -33 -256 -61 -302 -25 -41 -87 -134 -104 -158 -63
-86 -222 -194 -240 -165 -7 11 -14 9 -34 -13 -15 -16 -36 -27 -51 -27 -26 0
-65 -17 -77 -35 -4 -5 -10 -6 -15 -2 -4 5 -1 12 7 17 12 7 12 12 0 35 -13 24
-15 25 -26 10 -11 -15 -14 -15 -25 6 -11 21 -13 21 -24 5 -12 -15 -14 -15 -29
-1 -9 9 -16 23 -16 31 0 8 -7 14 -15 14 -8 0 -15 7 -15 15 0 9 -10 20 -22 24
l-23 9 25 10 c33 13 55 39 55 66 0 15 9 24 32 31 18 5 32 14 30 21 -1 7 10 23
25 37 17 16 30 41 34 66 5 31 12 41 33 47 14 4 29 7 34 6 4 -1 7 2 7 8 0 5 16
26 35 46 19 19 35 42 35 49 0 8 10 22 23 32 33 26 77 87 77 106 0 10 8 17 20
17 16 0 20 7 20 33 0 32 24 67 46 67 11 0 54 54 54 68 0 5 9 17 21 28 15 14
20 28 17 59 -2 38 -1 41 32 51 30 10 35 17 38 45 2 28 12 41 52 69 27 19 49
39 50 44 0 5 -18 6 -40 2 -44 -7 -55 8 -14 18 20 5 23 10 14 20 -6 8 -23 17
-38 21 -26 6 -42 21 -42 39 0 5 20 6 45 4 42 -5 45 -4 45 18 0 19 7 26 30 31
39 7 40 33 1 33 -16 0 -31 6 -35 15 -3 8 -1 15 4 15 6 0 10 8 10 18 0 10 11
29 25 42 19 18 22 26 13 32 -10 6 -10 8 0 8 6 0 12 11 12 25 0 14 -4 25 -9 25
-5 0 -8 16 -5 35 4 33 3 34 -33 40 -51 9 -103 27 -103 36 0 4 30 6 68 4 81 -4
102 -8 110 -22 10 -14 72 -25 72 -13 0 13 -22 53 -34 61 -5 4 -6 15 -2 24 4
12 13 15 29 11 12 -4 29 -8 37 -10 8 -1 19 -12 25 -24 5 -11 19 -25 32 -31 21
-10 23 -8 24 22 1 17 1 40 0 49 -1 10 9 33 23 51 14 19 26 43 26 55 0 11 5 24
10 27 6 3 10 14 10 24 0 11 9 21 21 24 12 3 18 10 15 16 -4 5 10 27 29 48 19
21 38 46 41 56 3 9 10 17 16 17 6 0 8 10 4 26 -5 18 -2 32 10 45 9 10 14 24
11 31 -4 8 -6 7 -6 -4 -1 -28 -18 -21 -48 20 -15 20 -34 41 -40 45 -15 9 -17
34 -4 39 12 4 24 118 12 118 -5 0 -7 18 -4 40 6 41 2 44 -31 31 -25 -10 -48
-78 -35 -104 6 -10 8 -25 5 -33 -3 -8 0 -14 7 -14 7 0 0 -10 -15 -23 -15 -12
-28 -31 -30 -42 -2 -11 -13 -24 -26 -30 -20 -9 -30 -39 -22 -70 16 -65 -8
-107 -43 -74 -20 18 -20 19 2 68 16 37 20 61 15 90 -6 37 -4 41 19 46 30 8 26
35 -4 35 -10 0 -19 5 -19 10 0 6 -6 10 -13 10 -8 0 -34 11 -58 25 -24 14 -49
27 -56 31 -6 3 -24 0 -40 -8 -21 -10 -31 -24 -38 -55 -6 -23 -16 -48 -23 -55
-6 -6 -12 -16 -12 -21 0 -10 -26 -37 -35 -37 -3 0 -22 -12 -41 -27 -22 -16
-33 -32 -29 -41 10 -25 -22 -63 -48 -57 -26 7 -74 -25 -87 -59 l-9 -21 -7 23
c-3 12 -13 22 -21 22 -19 0 -50 38 -58 71 -3 15 -15 35 -26 45 -18 16 -18 18
-2 37 16 17 18 41 18 183 l1 164 -28 0 c-16 0 -28 6 -28 13 -1 7 -6 5 -14 -5
-16 -21 -39 -23 -58 -5 -21 21 -95 47 -132 47 -19 0 -41 7 -50 15 -23 24 -47
18 -59 -15 -8 -20 -18 -30 -32 -30 -34 0 -128 40 -156 66 -21 20 -38 25 -78
26 -47 1 -55 5 -78 35 -20 26 -33 33 -59 33 -32 0 -34 2 -34 33 0 23 -8 41
-25 57 -28 26 -28 51 -1 92 10 15 15 31 12 36 -3 6 14 26 39 47 34 27 45 43
45 64 0 15 -3 31 -7 35 -4 3 -8 13 -9 22 -2 10 3 13 17 9 15 -5 19 -2 19 14 0
12 4 21 9 21 5 0 9 28 9 63 l0 62 -53 0 c-29 0 -57 -3 -61 -7 -4 -5 -15 -8
-25 -8 -9 0 -41 -13 -71 -28 -30 -16 -66 -32 -81 -36 -15 -3 -27 -13 -27 -20
0 -20 -72 -28 -86 -10 -6 8 -16 14 -23 14 -6 0 -11 6 -11 14 0 8 -9 18 -20 21
-11 3 -20 14 -20 23 0 15 -19 28 -67 49 -8 3 -13 -2 -13 -11 0 -12 -10 -16
-40 -16 -22 0 -40 4 -40 9 0 5 -14 23 -31 40 -17 17 -35 31 -40 31 -5 0 -9 5
-9 10 0 6 -18 10 -40 10 -22 0 -40 -4 -40 -10 0 -5 11 -10 25 -10 27 0 28 -1
19 -24 -8 -22 -40 -20 -56 2 -11 15 -32 20 -118 26 -57 3 -107 10 -110 15 -3
4 -29 11 -58 14 -45 5 -54 3 -65 -13z m440 -76 c-3 -3 -12 -4 -19 -1 -8 3 -5
6 6 6 11 1 17 -2 13 -5z m-90 -30 c-3 -3 -12 -4 -19 -1 -8 3 -5 6 6 6 11 1 17
-2 13 -5z m53 2 c0 -3 -4 -8 -10 -11 -5 -3 -10 -1 -10 4 0 6 5 11 10 11 6 0
10 -2 10 -4z m605 -156 c-3 -5 -12 -10 -18 -10 -7 0 -6 4 3 10 19 12 23 12 15
0z m48 -14 c-5 -27 -53 -44 -53 -20 0 8 7 14 15 14 9 0 18 7 21 15 10 24 22
17 17 -9z m-2483 -70 c0 -8 -31 -36 -41 -36 -5 0 -9 7 -9 15 0 10 -16 15 -57
18 -48 3 -44 4 25 5 45 1 82 0 82 -2z m-130 -46 c0 -5 -7 -10 -15 -10 -8 0
-15 5 -15 10 0 6 7 10 15 10 8 0 15 -4 15 -10z m-62 -28 c-10 -2 -18 -10 -18
-18 0 -8 -9 -14 -20 -14 -18 0 -18 1 3 23 12 13 29 21 37 18 12 -4 12 -6 -2
-9z m2490 -431 c21 -21 46 -41 53 -44 11 -5 11 -8 -3 -20 -12 -10 -14 -17 -6
-25 7 -7 -3 -12 -38 -17 -47 -6 -76 -15 -119 -38 -25 -13 -135 -11 -148 2 -6
6 -23 11 -38 11 -15 0 -30 6 -32 13 -4 9 -8 9 -14 1 -6 -9 -22 -5 -57 12 -28
13 -56 24 -64 24 -8 0 -12 6 -9 14 4 9 -3 17 -16 21 l-22 6 21 9 c36 14 186
29 210 20 25 -10 94 -2 94 10 0 4 10 11 23 15 12 5 31 11 42 15 48 19 82 11
123 -29z m-1703 10 c-37 -23 -85 -35 -85 -21 0 5 18 13 40 16 22 4 40 10 40
15 0 5 8 9 18 9 12 0 8 -6 -13 -19z m2003 -116 c-3 -49 -6 -57 -26 -62 -16 -4
-33 2 -52 16 -16 11 -33 21 -39 21 -5 0 -12 7 -15 15 -6 17 5 23 84 48 25 8
46 15 48 16 2 0 2 -24 0 -54z m197 -25 c-3 -5 -1 -11 5 -15 17 -11 11 -43 -12
-59 -29 -21 -72 -20 -94 1 -9 10 -22 18 -28 19 -6 1 -22 7 -36 12 l-25 11 28
0 c16 1 35 8 44 17 9 8 22 13 31 9 8 -3 21 0 28 6 8 6 14 8 14 5 0 -4 8 -3 17
3 19 10 37 5 28 -9z m1241 -59 c1 -23 -2 -28 -17 -24 -22 6 -23 16 -8 45 13
24 23 16 25 -21z m-1671 -152 c-5 -6 12 -10 47 -9 93 1 341 -15 399 -26 16 -3
40 -24 65 -57 21 -28 52 -64 68 -79 l29 -28 -6 -128 c-5 -124 4 -220 22 -232
5 -3 13 -18 16 -33 4 -15 29 -49 55 -75 54 -54 78 -92 58 -92 -7 0 -26 16 -43
35 -31 37 -55 45 -55 20 0 -17 -12 -19 -26 -5 -6 6 -18 8 -27 4 -15 -5 -15 -8
-1 -28 8 -13 26 -28 39 -34 20 -9 25 -18 23 -42 -1 -19 -8 -30 -18 -30 -21 0
-110 78 -120 105 -13 33 -120 51 -120 20 0 -8 -4 -15 -8 -15 -4 0 -21 -22 -37
-50 -16 -27 -35 -50 -42 -50 -7 0 -13 -6 -13 -14 0 -16 -59 -56 -83 -56 -22 0
-37 -31 -37 -74 0 -19 -4 -37 -8 -40 -5 -3 -33 -1 -64 3 -57 8 -88 0 -88 -22
0 -7 -12 -20 -26 -31 -21 -15 -35 -17 -67 -11 -23 4 -76 9 -118 10 -60 3 -83
8 -111 27 -34 24 -35 25 -23 59 7 19 18 53 26 77 10 34 20 46 46 57 18 8 33
18 33 23 0 10 48 24 143 42 57 11 103 43 91 62 -7 10 29 48 45 48 13 0 22 28
11 35 -6 4 -10 19 -10 35 0 15 -7 30 -15 34 -15 6 -21 52 -7 58 17 7 53 79 48
95 -12 37 -47 47 -169 50 -243 6 -332 26 -431 96 -23 16 -32 18 -47 9 -11 -7
-19 -8 -19 -4 0 5 -24 20 -52 35 -86 42 -112 78 -109 150 1 26 3 27 57 27 30
0 65 5 77 11 16 9 22 9 25 0 5 -14 39 -15 47 -1 4 7 13 7 26 0 13 -7 25 -7 37
-1 14 7 25 6 40 -4 20 -15 52 -11 52 6 0 5 21 9 48 9 46 1 178 23 187 31 10
10 146 9 140 -2z m1555 -144 c0 -8 -2 -15 -4 -15 -2 0 -6 7 -10 15 -3 8 -1 15
4 15 6 0 10 -7 10 -15z m-147 -139 c9 -7 17 -16 17 -20 0 -13 -28 -5 -45 14
-21 24 -1 28 28 6z m67 -87 c0 -6 -4 -7 -10 -4 -5 3 -10 11 -10 16 0 6 5 7 10
4 6 -3 10 -11 10 -16z m-192 -74 c-7 -7 -12 -6 -15 3 -3 6 -11 12 -19 12 -8 0
-14 10 -14 26 l0 25 29 -28 c20 -19 26 -31 19 -38z m-350 -133 c24 -15 29 -32
10 -32 -15 0 -78 43 -78 53 0 10 38 -1 68 -21z m102 -172 c-21 -13 -63 -13
-55 1 4 6 17 14 29 19 26 10 48 -6 26 -20z m174 -195 c12 -13 13 -21 4 -40 -6
-14 -14 -25 -17 -25 -26 1 -40 58 -19 72 17 10 14 10 32 -7z m-458 -16 c24 -6
44 -15 44 -18 0 -10 -129 8 -150 19 -22 14 51 13 106 -1z m227 -103 c3 -8 24
-17 46 -21 49 -8 60 -21 26 -28 -30 -5 -105 29 -105 49 0 18 26 18 33 0z
m-490 -56 l29 -30 -27 0 c-22 0 -78 22 -95 37 -7 7 23 23 45 23 11 0 33 -13
48 -30z m316 -64 c34 -19 9 -30 -34 -16 -19 6 -33 16 -30 21 8 13 36 11 64 -5z
m-454 -72 c17 -4 43 -18 58 -31 18 -14 42 -23 62 -23 26 0 33 -4 29 -15 -4 -8
1 -17 10 -21 32 -12 16 -26 -21 -20 -21 4 -56 9 -78 12 -62 8 -74 14 -47 25
33 13 27 24 -30 59 -29 17 -44 29 -33 26 11 -3 34 -8 50 -12z m395 2 c0 -3 -4
-8 -10 -11 -5 -3 -10 -1 -10 4 0 6 5 11 10 11 6 0 10 -2 10 -4z m-26 -195 c9
-14 -17 -29 -44 -26 -14 2 -40 4 -57 4 -38 1 -44 17 -10 24 42 8 106 7 111 -2z
m616 -10 c11 -22 4 -51 -14 -51 -6 0 -12 16 -13 35 -2 38 11 46 27 16z m-783
-7 c-3 -3 -12 -4 -19 -1 -8 3 -5 6 6 6 11 1 17 -2 13 -5z m220 -55 c-14 -8
-22 -8 -30 0 -8 8 -3 11 19 11 25 -1 27 -2 11 -11z m-185 -54 c9 -11 15 -22
13 -23 -5 -5 -65 41 -65 50 0 12 34 -5 52 -27z m198 21 c0 -2 2 -10 5 -18 4
-9 -5 -13 -30 -14 -38 -1 -45 9 -17 25 17 11 42 14 42 7z m-255 -46 c3 -5 -1
-10 -9 -10 -9 0 -16 5 -16 10 0 6 4 10 9 10 6 0 13 -4 16 -10z m-85 -76 c0
-16 -16 -19 -25 -4 -8 13 4 32 16 25 5 -4 9 -13 9 -21z m-2566 -49 c-4 -8 -8
-15 -10 -15 -2 0 -4 7 -4 15 0 8 4 15 10 15 5 0 7 -7 4 -15z m2636 -6 c0 -5
-7 -9 -15 -9 -15 0 -20 12 -9 23 8 8 24 -1 24 -14z m1645 -29 c3 -5 1 -10 -4
-10 -6 0 -11 5 -11 10 0 6 2 10 4 10 3 0 8 -4 11 -10z m-1618 -22 c-3 -8 -6
-5 -6 6 -1 11 2 17 5 13 3 -3 4 -12 1 -19z m1813 1 c0 -5 -4 -9 -9 -9 -5 0
-16 -3 -25 -6 -10 -4 -16 -1 -16 7 0 8 11 15 25 15 14 1 25 -2 25 -7z m40 -39
c0 -5 -2 -10 -4 -10 -3 0 -8 5 -11 10 -3 6 -1 10 4 10 6 0 11 -4 11 -10z
m-4580 -24 c0 -11 -19 -15 -25 -6 -3 5 1 10 9 10 9 0 16 -2 16 -4z m4557 -52
c-3 -3 -12 -4 -19 -1 -8 3 -5 6 6 6 11 1 17 -2 13 -5z m163 -94 c0 -5 -7 -10
-15 -10 -8 0 -15 5 -15 10 0 6 7 10 15 10 8 0 15 -4 15 -10z m335 0 c3 -5 -1
-10 -9 -10 -9 0 -16 5 -16 10 0 6 4 10 9 10 6 0 13 -4 16 -10z m-210 -110 c8
-13 -5 -13 -25 0 -13 8 -13 10 2 10 9 0 20 -4 23 -10z m605 -60 c0 -5 -2 -10
-4 -10 -3 0 -8 5 -11 10 -3 6 -1 10 4 10 6 0 11 -4 11 -10z m38 -29 c3 -8 -1
-12 -9 -9 -7 2 -15 10 -17 17 -3 8 1 12 9 9 7 -2 15 -10 17 -17z m97 9 c3 -5
1 -10 -4 -10 -6 0 -11 5 -11 10 0 6 2 10 4 10 3 0 8 -4 11 -10z m-135 -76 c0
-8 -5 -12 -10 -9 -6 4 -8 11 -5 16 9 14 15 11 15 -7z m-65 -164 c4 -6 -7 -10
-25 -10 -18 0 -29 4 -25 10 3 6 15 10 25 10 10 0 22 -4 25 -10z m962 -37 c-8
-7 -37 9 -31 19 3 5 12 4 20 -3 8 -6 13 -14 11 -16z m-897 -13 c0 -5 -2 -10
-4 -10 -3 0 -8 5 -11 10 -3 6 -1 10 4 10 6 0 11 -4 11 -10z m1045 -19 c6 -10
95 -54 133 -65 12 -4 22 -14 22 -22 0 -8 6 -14 14 -14 8 0 18 -5 22 -11 9 -16
-38 0 -51 17 -5 7 -40 25 -78 40 -37 14 -72 35 -78 45 -10 19 4 28 16 10z
m-121 -26 c15 -8 32 -15 36 -15 13 0 79 -44 80 -52 0 -14 -21 -8 -47 12 -14
11 -31 20 -38 20 -7 0 -23 9 -36 19 -14 10 -36 21 -49 24 l-25 4 25 2 c14 0
38 -6 54 -14z m-337 -1 c-3 -3 -12 -4 -19 -1 -8 3 -5 6 6 6 11 1 17 -2 13 -5z
m299 -80 c19 -9 34 -20 34 -25 0 -11 -31 1 -48 18 -7 7 -26 13 -42 13 -16 0
-32 5 -36 12 -9 15 45 4 92 -18z m-857 0 c13 -12 -8 -10 -29 2 l-25 15 25 -7
c14 -3 27 -8 29 -10z m1066 -5 c12 -19 -5 -23 -22 -6 -16 16 -16 17 -1 17 9 0
20 -5 23 -11z m220 -47 c-8 -8 -55 20 -49 29 3 5 16 1 30 -7 13 -9 22 -19 19
-22z m-1368 2 c-3 -3 -12 -4 -19 -1 -8 3 -5 6 6 6 11 1 17 -2 13 -5z m1398
-14 c3 -5 -1 -10 -10 -10 -9 0 -13 5 -10 10 3 6 8 10 10 10 2 0 7 -4 10 -10z
m-321 -36 c23 -9 20 -23 -4 -17 -11 3 -20 9 -20 14 0 11 3 11 24 3z m-100 -48
c10 4 16 1 16 -9 0 -20 -51 -8 -58 14 -4 11 -3 12 10 1 9 -7 23 -10 32 -6z
m720 -2 c9 -3 16 -10 16 -15 0 -13 -23 -10 -44 6 -16 12 -17 15 -4 15 9 0 23
-3 32 -6z m61 -50 c14 -9 25 -20 25 -25 0 -16 -25 -9 -43 11 -29 34 -21 40 18
14z m-738 -16 c-3 -8 -6 -5 -6 6 -1 11 2 17 5 13 3 -3 4 -12 1 -19z m870 -34
c0 -14 -2 -22 -6 -18 -3 5 -17 21 -31 37 l-24 27 30 -10 c21 -7 29 -17 31 -36z
m-1024 19 c-7 -2 -19 -2 -25 0 -7 3 -2 5 12 5 14 0 19 -2 13 -5z m872 -77 c3
2 1 -1 -4 -7 -11 -14 -31 -3 -31 16 0 7 -10 17 -22 21 -25 8 -49 34 -42 46 3
4 25 -12 49 -36 25 -24 47 -42 50 -40z m100 28 c9 -14 14 -28 11 -32 -3 -3 -7
-3 -8 -1 -2 2 -14 16 -27 32 -19 21 -21 27 -9 27 9 0 23 -12 33 -26z m95 16
c0 -5 -7 -10 -15 -10 -8 0 -15 5 -15 10 0 6 7 10 15 10 8 0 15 -4 15 -10z
m-1873 -22 c-3 -8 -6 -5 -6 6 -1 11 2 17 5 13 3 -3 4 -12 1 -19z m1028 -28 c3
-5 1 -10 -4 -10 -6 0 -11 5 -11 10 0 6 2 10 4 10 3 0 8 -4 11 -10z m862 4 c-3
-3 -12 -4 -19 -1 -8 3 -5 6 6 6 11 1 17 -2 13 -5z m-322 -35 c10 -31 0 -33
-19 -4 -14 21 -14 25 -2 25 8 0 18 -9 21 -21z m175 -21 c22 -23 40 -44 40 -48
0 -4 10 -14 22 -22 13 -9 19 -19 14 -27 -6 -9 -16 -3 -37 23 -16 19 -38 38
-49 41 -11 4 -20 12 -20 20 0 8 -9 17 -20 20 -20 6 -25 16 -13 28 12 13 24 7
63 -35z m88 11 c4 -24 3 -24 -12 -4 -19 24 -20 38 -3 33 6 -3 13 -15 15 -29z
m70 12 c3 -8 -1 -12 -9 -9 -7 2 -15 10 -17 17 -3 8 1 12 9 9 7 -2 15 -10 17
-17z m82 -31 c8 -5 12 -11 9 -14 -3 -3 -14 1 -25 9 -21 16 -8 20 16 5z m-45
-10 c3 -5 -1 -10 -9 -10 -9 0 -16 5 -16 10 0 6 4 10 9 10 6 0 13 -4 16 -10z
m-301 -25 c-4 -8 -7 -15 -9 -15 -2 0 -5 7 -9 15 -3 9 0 15 9 15 9 0 12 -6 9
-15z m290 -55 c6 -19 20 -39 32 -44 33 -15 72 -96 45 -96 -5 0 -12 11 -15 25
-4 14 -22 41 -41 60 -19 18 -35 40 -35 49 0 8 -4 18 -10 21 -14 9 -13 28 1 23
7 -2 17 -19 23 -38z m-255 -10 c12 0 51 -40 51 -53 -1 -7 -6 -5 -14 6 -7 9
-17 17 -21 17 -12 0 -34 33 -34 50 1 11 3 10 6 -2 2 -10 8 -18 12 -18z m350
-7 c6 -16 25 -43 41 -62 17 -18 30 -38 30 -43 0 -4 18 -38 40 -75 26 -42 37
-70 31 -76 -10 -10 -38 29 -87 124 -16 30 -32 56 -35 59 -11 10 -59 85 -59 92
0 20 29 5 39 -19z m-141 -61 c2 -7 -3 -12 -12 -12 -9 0 -16 7 -16 16 0 17 22
14 28 -4z m-128 -28 c0 -14 -3 -14 -15 -4 -8 7 -15 14 -15 16 0 2 7 4 15 4 8
0 15 -7 15 -16z m160 -54 c0 -5 -4 -10 -10 -10 -5 0 -10 5 -10 10 0 6 5 10 10
10 6 0 10 -4 10 -10z m172 -105 c12 -16 -3 -26 -18 -11 -8 8 -14 17 -14 20 0
9 24 2 32 -9z m33 -55 c3 -5 -1 -10 -9 -10 -9 0 -16 5 -16 10 0 6 4 10 9 10 6
0 13 -4 16 -10z m80 0 c3 -5 -1 -10 -9 -10 -9 0 -16 5 -16 10 0 6 4 10 9 10 6
0 13 -4 16 -10z m-51 -52 c-3 -9 3 -22 13 -30 23 -16 31 -70 9 -62 -7 3 -16
19 -20 35 -3 16 -18 40 -33 53 l-27 23 32 -1 c25 -1 31 -5 26 -18z m100 -60
c-3 -4 -11 -5 -19 -1 -16 5 -20 25 -8 36 7 8 33 -25 27 -35z m96 -193 c0 -16
-6 -25 -16 -25 -11 0 -14 5 -10 16 3 9 6 20 6 25 0 5 5 9 10 9 6 0 10 -11 10
-25z m28 -101 c4 -61 -17 -48 -25 16 -5 34 -3 42 8 38 9 -3 15 -23 17 -54z
m-68 4 c0 -5 -4 -8 -10 -8 -5 0 -10 10 -10 23 0 18 2 19 10 7 5 -8 10 -18 10
-22z m-110 -17 c0 -6 -4 -13 -10 -16 -5 -3 -10 1 -10 9 0 9 5 16 10 16 6 0 10
-4 10 -9z m241 -137 c19 -54 24 -94 11 -94 -5 0 -15 25 -22 56 -9 35 -21 59
-33 66 -16 8 -17 12 -6 19 23 14 32 6 50 -47z m-76 10 c3 -20 5 -37 3 -39 -8
-8 -37 24 -43 48 -6 23 -4 27 13 27 15 0 21 -9 27 -36z m-118 -106 c-3 -8 -6
-5 -6 6 -1 11 2 17 5 13 3 -3 4 -12 1 -19z m263 -68 c0 -5 -11 -3 -24 3 -16 8
-20 14 -13 19 12 7 37 -8 37 -22z m-90 -22 c0 -5 -4 -8 -10 -8 -5 0 -10 10
-10 23 0 18 2 19 10 7 5 -8 10 -18 10 -22z m-565 -8 c3 -5 1 -10 -4 -10 -6 0
-11 5 -11 10 0 6 2 10 4 10 3 0 8 -4 11 -10z m675 -47 c0 -19 -27 -16 -34 3
-4 9 -4 26 0 37 6 20 7 20 20 -4 7 -13 13 -30 14 -36z m-200 -24 c0 -6 -4 -7
-10 -4 -5 3 -10 11 -10 16 0 6 5 7 10 4 6 -3 10 -11 10 -16z m243 -106 c9 -20
15 -39 12 -41 -8 -9 -25 10 -25 29 0 10 -7 19 -15 19 -16 0 -20 12 -8 23 12
13 19 7 36 -30z m-56 -78 c8 -22 -6 -33 -17 -15 -13 20 -12 30 0 30 6 0 13 -7
17 -15z m93 -44 c0 -8 8 -20 17 -27 10 -7 14 -16 10 -20 -12 -13 -36 19 -43
56 -4 26 -3 31 5 20 6 -8 11 -21 11 -29z m-660 -91 c0 -5 -4 -10 -10 -10 -5 0
-10 5 -10 10 0 6 5 10 10 10 6 0 10 -4 10 -10z m710 -55 c0 -8 -4 -15 -10 -15
-5 0 -10 7 -10 15 0 8 5 15 10 15 6 0 10 -7 10 -15z m-710 -5 c0 -5 -4 -10
-10 -10 -5 0 -10 5 -10 10 0 6 5 10 10 10 6 0 10 -4 10 -10z m801 -35 c-1 -15
-24 -12 -29 3 -3 9 2 13 12 10 10 -1 17 -7 17 -13z m-191 -30 c0 -14 -4 -25
-10 -25 -5 0 -10 11 -10 25 0 14 5 25 10 25 6 0 10 -11 10 -25z m220 -34 c5
-11 10 -31 10 -45 0 -14 5 -28 10 -31 6 -3 10 -14 10 -23 -1 -14 -2 -14 -12 3
-6 11 -14 22 -17 25 -12 10 -39 78 -34 84 11 11 22 6 33 -13z m42 -177 c10
-21 9 -27 -3 -34 -13 -9 -25 10 -28 48 -2 22 19 13 31 -14z m-83 -101 c0 -16
-4 -37 -9 -48 -6 -15 -9 -8 -9 28 -1 26 4 47 9 47 6 0 10 -12 9 -27z m71 -47
c0 -8 -4 -18 -10 -21 -5 -3 -10 3 -10 14 0 12 5 21 10 21 6 0 10 -6 10 -14z
m93 -28 c-8 -61 -23 -72 -23 -17 0 25 3 49 7 52 15 16 21 4 16 -35z m-16 -110
c-3 -7 -5 -2 -5 12 0 14 2 19 5 13 2 -7 2 -19 0 -25z m-2 -78 c-5 -8 -11 -8
-17 -2 -6 6 -7 16 -3 22 5 8 11 8 17 2 6 -6 7 -16 3 -22z m65 -35 c10 -12 10
-15 -4 -15 -9 0 -16 7 -16 15 0 8 2 15 4 15 2 0 9 -7 16 -15z m-70 -55 c0 -5
-4 -10 -10 -10 -5 0 -10 5 -10 10 0 6 5 10 10 10 6 0 10 -4 10 -10z m-85 -110
c3 -5 1 -10 -4 -10 -6 0 -11 5 -11 10 0 6 2 10 4 10 3 0 8 -4 11 -10z m5 -54
c0 -8 -4 -18 -10 -21 -5 -3 -10 3 -10 14 0 12 5 21 10 21 6 0 10 -6 10 -14z
m145 -26 c8 -25 -3 -62 -16 -55 -12 8 -12 75 0 75 5 0 13 -9 16 -20z m-281
-55 c-4 -8 -7 -15 -9 -15 -2 0 -5 7 -9 15 -3 9 0 15 9 15 9 0 12 -6 9 -15z
m346 -31 c0 -8 -4 -14 -10 -14 -5 0 -10 9 -10 21 0 11 5 17 10 14 6 -3 10 -13
10 -21z m-124 -7 c3 -13 1 -39 -4 -58 l-8 -34 -14 25 c-9 17 -10 25 -2 28 7 2
9 15 5 33 -7 35 14 40 23 6z m58 -2 c3 -8 1 -15 -4 -15 -6 0 -10 7 -10 15 0 8
2 15 4 15 2 0 6 -7 10 -15z m-154 -90 c0 -14 0 -27 0 -30 0 -3 -3 -4 -7 -2
-12 3 -15 57 -4 57 6 0 11 -11 11 -25z m-203 -21 c-3 -3 -12 -4 -19 -1 -8 3
-5 6 6 6 11 1 17 -2 13 -5z m446 -18 c6 -16 -16 -40 -26 -29 -4 3 -7 15 -7 25
0 21 25 24 33 4z m-153 -38 l0 -33 -14 25 c-13 26 -12 40 5 40 5 0 9 -15 9
-32z m-800 2 c0 -5 -9 -10 -19 -10 -11 0 -23 5 -26 10 -4 6 5 10 19 10 14 0
26 -4 26 -10z m882 -14 c4 -17 1 -23 -9 -19 -14 5 -17 25 -6 36 9 10 10 9 15
-17z m72 -27 c-6 -11 -24 -2 -24 11 0 5 7 7 15 4 8 -4 12 -10 9 -15z m-62 -47
c3 -9 1 -26 -3 -37 -6 -15 -8 -11 -8 18 -1 40 4 48 11 19z m108 -92 c0 -5 -4
-10 -10 -10 -5 0 -10 5 -10 10 0 6 5 10 10 10 6 0 10 -4 10 -10z m-293 -22
c-3 -8 -6 -5 -6 6 -1 11 2 17 5 13 3 -3 4 -12 1 -19z m283 -18 c6 -25 -7 -60
-23 -60 -4 0 -7 12 -6 28 1 15 -2 35 -6 46 -6 14 -4 17 11 14 10 -1 21 -14 24
-28z m-70 -74 c0 -8 -4 -18 -10 -21 -5 -3 -10 3 -10 14 0 12 5 21 10 21 6 0
10 -6 10 -14z m-91 -80 c-9 -8 -10 -7 -6 6 3 10 2 20 -4 23 -5 4 -6 11 -3 17
5 7 11 2 16 -12 6 -15 5 -27 -3 -34z m91 -8 c0 -5 -4 -8 -10 -8 -5 0 -10 10
-10 23 0 18 2 19 10 7 5 -8 10 -18 10 -22z m58 18 c-7 -8 -15 -12 -17 -11 -5
6 10 25 20 25 5 0 4 -6 -3 -14z m31 -53 c8 -17 9 -29 2 -36 -7 -7 -14 -1 -21
17 -19 51 -3 67 19 19z m-69 -4 c0 -5 -4 -9 -10 -9 -5 0 -10 7 -10 16 0 8 5
12 10 9 6 -3 10 -10 10 -16z m11 -133 c-5 -11 -16 -22 -25 -24 -13 -3 -16 5
-14 42 l1 46 23 -21 c17 -16 21 -27 15 -43z m61 32 c-17 -17 -15 -41 3 -34 9
3 15 0 15 -10 0 -9 -7 -14 -17 -12 -13 2 -18 13 -19 38 -1 43 5 55 19 41 8 -8
8 -14 -1 -23z m-295 -70 c-3 -7 -5 -2 -5 12 0 14 2 19 5 13 2 -7 2 -19 0 -25z
m-1002 3 c9 -16 -9 -20 -23 -5 -10 12 -10 14 2 14 8 0 17 -4 21 -9z m1238 -16
c8 -19 -13 -31 -24 -14 -13 20 -11 29 5 29 8 0 16 -7 19 -15z m87 5 c0 -5 -2
-10 -4 -10 -3 0 -8 5 -11 10 -3 6 -1 10 4 10 6 0 11 -4 11 -10z m-187 -100
c-7 -8 -22 24 -16 34 4 5 10 1 13 -10 4 -10 6 -21 3 -24z m195 13 c2 -26 1
-26 -12 -8 -13 18 -11 25 9 35 0 0 2 -12 3 -27z m-188 -74 c0 -20 -15 -26 -24
-10 -8 13 4 42 15 35 5 -3 9 -14 9 -25z m216 -37 c4 -20 3 -32 -4 -32 -16 0
-32 34 -32 66 0 25 2 27 15 14 8 -9 17 -30 21 -48z m-96 34 c0 -8 -4 -18 -10
-21 -5 -3 -10 3 -10 14 0 12 5 21 10 21 6 0 10 -6 10 -14z m10 -123 c0 -13 -3
-13 -15 -3 -8 7 -12 16 -9 21 8 13 24 1 24 -18z m-111 -25 c-1 -18 -3 -25 -6
-15 -2 9 -8 17 -13 17 -5 0 -7 7 -4 15 11 27 24 16 23 -17z m221 -31 c0 -17
10 -51 22 -76 15 -31 18 -46 10 -49 -7 -2 -9 -9 -6 -14 4 -7 2 -8 -4 -4 -7 4
-12 13 -12 19 0 7 -7 25 -15 41 -9 16 -17 42 -19 58 -1 15 -6 31 -9 35 -15 14
-6 31 13 26 15 -4 20 -14 20 -36z m-94 11 c-1 -13 -10 -24 -19 -26 -13 -3 -14
0 -4 22 15 32 28 34 23 4z m-86 -95 c0 -2 -9 2 -20 9 -13 8 -20 24 -20 43 l0
29 20 -39 c11 -22 20 -41 20 -42z m230 -134 c8 -30 8 -45 1 -52 -12 -12 -15
-1 -11 41 1 12 -3 22 -9 22 -6 0 -11 7 -11 15 0 31 20 14 30 -26z m-112 -11
c7 -7 12 -25 12 -42 l0 -30 -25 34 c-14 19 -25 38 -25 42 0 12 24 10 38 -4z
m12 -127 c0 -6 -4 -13 -10 -16 -5 -3 -10 1 -10 9 0 9 5 16 10 16 6 0 10 -4 10
-9z m295 -120 c6 -26 4 -32 -6 -29 -8 3 -15 22 -17 44 -4 46 12 36 23 -15z
m-155 -41 c0 -5 -5 -10 -11 -10 -5 0 -7 5 -4 10 3 6 8 10 11 10 2 0 4 -4 4
-10z m113 3 c3 -5 1 -17 -4 -28 l-8 -20 0 20 c-1 17 -3 17 -11 5 -11 -17 -13
-10 -4 14 6 17 20 21 27 9z m-75 -41 c-5 -27 -28 -26 -28 2 0 19 4 24 15 19 9
-3 15 -12 13 -21z m-125 -27 c1 -5 -6 -11 -15 -13 -11 -2 -18 3 -18 13 0 17
30 18 33 0z m226 -43 c7 -31 6 -42 -2 -39 -14 4 -27 64 -19 86 6 17 7 14 21
-47z m-84 -11 c-9 -16 -25 -3 -18 15 4 10 9 12 15 6 6 -6 7 -15 3 -21z m-148
-103 c-3 -8 -6 -5 -6 6 -1 11 2 17 5 13 3 -3 4 -12 1 -19z m49 -91 c16 -9 7
-37 -12 -37 -10 0 -14 13 -13 48 1 27 4 37 6 22 3 -14 11 -28 19 -33z m144 -1
c0 -3 -4 -8 -10 -11 -5 -3 -10 -1 -10 4 0 6 5 11 10 11 6 0 10 -2 10 -4z m100
-20 c0 -3 -4 -8 -10 -11 -5 -3 -10 -1 -10 4 0 6 5 11 10 11 6 0 10 -2 10 -4z
m0 -87 c0 -5 -7 -9 -15 -9 -9 0 -15 9 -15 21 0 18 2 19 15 9 8 -7 15 -16 15
-21z m-91 -66 c1 -18 -3 -33 -8 -33 -10 0 -22 80 -14 94 9 13 21 -22 22 -61z
m125 -9 c22 -8 22 -74 1 -74 -8 0 -15 4 -15 9 0 5 -3 23 -6 40 -7 33 -5 35 20
25z m-594 -64 c0 -5 -7 -10 -16 -10 -8 0 -12 5 -9 10 3 6 10 10 16 10 5 0 9
-4 9 -10z m606 -31 c4 -6 8 -37 10 -68 2 -31 8 -57 14 -59 13 -5 13 -49 0 -57
-12 -7 -14 -1 -30 90 -6 39 -14 78 -17 88 -5 19 12 24 23 6z m107 -51 c-10
-19 -23 -5 -23 25 l0 32 14 -25 c7 -14 11 -28 9 -32z m-523 -42 c0 -3 -4 -8
-10 -11 -5 -3 -10 -1 -10 4 0 6 5 11 10 11 6 0 10 -2 10 -4z m566 -205 c-12
-19 -24 -12 -19 10 4 13 9 17 15 11 6 -6 7 -15 4 -21z m-111 10 c3 -5 1 -12
-5 -16 -5 -3 -10 1 -10 9 0 18 6 21 15 7z m-428 -33 c-3 -8 -6 -5 -6 6 -1 11
2 17 5 13 3 -3 4 -12 1 -19z m546 -24 c9 -10 -12 -46 -24 -39 -14 9 -11 45 4
45 8 0 17 -3 20 -6z m-3 -147 c0 -5 -4 -5 -10 -2 -5 3 -10 14 -10 23 0 15 2
15 10 2 5 -8 10 -19 10 -23z m120 -44 c0 -10 3 -35 6 -55 5 -29 3 -38 -7 -38
-10 0 -14 12 -13 39 2 30 -1 38 -12 34 -17 -6 -18 3 -1 22 17 19 27 18 27 -2z
m-670 -89 c0 -12 -2 -12 -14 -2 -8 7 -12 16 -9 21 7 11 23 -2 23 -19z m-205
-24 c3 -5 1 -10 -4 -10 -6 0 -11 5 -11 10 0 6 2 10 4 10 3 0 8 -4 11 -10z
m845 -6 c0 -17 -22 -14 -28 4 -2 7 3 12 12 12 9 0 16 -7 16 -16z m-178 -96
c-16 -16 -30 -1 -24 27 l4 26 15 -21 c11 -15 12 -25 5 -32z m108 18 c-15 -15
-33 4 -19 20 10 12 14 12 20 2 5 -7 4 -17 -1 -22z m-243 -28 c-3 -8 -6 -5 -6
6 -1 11 2 17 5 13 3 -3 4 -12 1 -19z m-3 -80 c-5 -8 -10 -5 -14 8 -10 25 0 41
12 20 5 -9 6 -21 2 -28z m332 -4 c-3 -9 -6 -21 -6 -27 0 -6 -7 -4 -16 5 -18
18 -11 38 13 38 10 0 13 -6 9 -16z m54 -18 c0 -3 -4 -8 -10 -11 -5 -3 -10 -1
-10 4 0 6 5 11 10 11 6 0 10 -2 10 -4z m-73 -488 c-3 -8 -6 -5 -6 6 -1 11 2
17 5 13 3 -3 4 -12 1 -19z m93 -62 c0 -3 -4 -8 -10 -11 -5 -3 -10 -1 -10 4 0
6 5 11 10 11 6 0 10 -2 10 -4z m-303 -48 c-3 -8 -6 -5 -6 6 -1 11 2 17 5 13 3
-3 4 -12 1 -19z m228 2 c3 -5 1 -10 -4 -10 -6 0 -11 5 -11 10 0 6 2 10 4 10 3
0 8 -4 11 -10z m72 -12 c-3 -8 -6 -5 -6 6 -1 11 2 17 5 13 3 -3 4 -12 1 -19z
m-57 -58 c0 -5 -9 -14 -20 -20 -15 -8 -20 -8 -20 3 0 8 3 17 7 20 10 10 33 8
33 -3z m47 -52 c-3 -8 -6 -5 -6 6 -1 11 2 17 5 13 3 -3 4 -12 1 -19z m-80 -70
c-3 -7 -5 -2 -5 12 0 14 2 19 5 13 2 -7 2 -19 0 -25z m3 -58 c0 -5 -4 -10 -10
-10 -5 0 -10 5 -10 10 0 6 5 10 10 10 6 0 10 -4 10 -10z m98 -7 c-1 -10 1 -24
5 -30 5 -9 3 -13 -7 -13 -11 0 -16 9 -16 30 0 17 5 30 11 30 5 0 9 -8 7 -17z"/>
<path d="M6365 10888 c-13 -32 -1 -53 29 -53 16 0 31 6 34 13 2 6 -3 12 -11
12 -8 0 -21 10 -30 23 -13 19 -16 20 -22 5z"/>
<path d="M6400 10742 c0 -21 -5 -43 -11 -49 -19 -19 0 -33 47 -33 37 0 44 -3
44 -20 0 -11 7 -20 15 -20 11 0 15 11 15 40 l0 40 -45 0 -45 0 0 40 c0 22 -4
40 -10 40 -5 0 -10 -17 -10 -38z"/>
<path d="M6808 10693 c7 -3 16 -2 19 1 4 3 -2 6 -13 5 -11 0 -14 -3 -6 -6z"/>
<path d="M6850 10670 c0 -5 7 -10 15 -10 8 0 15 5 15 10 0 6 -7 10 -15 10 -8
0 -15 -4 -15 -10z"/>
<path d="M6858 10623 c7 -3 16 -2 19 1 4 3 -2 6 -13 5 -11 0 -14 -3 -6 -6z"/>
<path d="M10065 10338 c-8 -32 0 -49 21 -41 9 3 21 -3 30 -16 8 -11 22 -21 30
-21 8 0 14 -9 14 -20 0 -11 7 -20 15 -20 9 0 15 9 15 24 0 43 -10 56 -45 56
-31 0 -57 19 -67 50 -4 10 -8 6 -13 -12z"/>
<path d="M10475 9990 c-3 -5 -1 -10 4 -10 6 0 11 5 11 10 0 6 -2 10 -4 10 -3
0 -8 -4 -11 -10z"/>
<path d="M10458 9033 c-16 -4 -16 -6 0 -24 16 -19 43 -25 55 -12 7 7 -21 44
-32 42 -3 -1 -14 -3 -23 -6z"/>
<path d="M6800 9000 c0 -5 5 -10 11 -10 5 0 7 5 4 10 -3 6 -8 10 -11 10 -2 0
-4 -4 -4 -10z"/>
<path d="M10475 8930 c3 -5 13 -10 21 -10 8 0 14 5 14 10 0 6 -9 10 -21 10
-11 0 -17 -4 -14 -10z"/>
<path d="M6945 8459 c-4 -6 -5 -12 -2 -15 2 -3 7 2 10 11 7 17 1 20 -8 4z"/>
<path d="M14580 6550 c0 -5 5 -10 10 -10 6 0 10 -9 10 -19 0 -10 14 -34 31
-52 18 -19 39 -44 47 -57 8 -12 17 -20 19 -18 3 3 -4 18 -16 34 -12 17 -21 34
-21 39 0 5 -8 18 -19 29 -10 11 -24 30 -30 42 -12 23 -31 30 -31 12z"/>
<path d="M14690 6371 c0 -5 14 -23 30 -41 34 -36 38 -32 13 11 -17 28 -43 46
-43 30z"/>
<path d="M14793 6137 c-3 -6 -1 -7 5 -3 7 4 20 -6 32 -26 24 -39 26 -55 5 -38
-8 7 -15 9 -15 5 0 -17 44 -95 54 -95 6 0 6 4 -1 11 -9 9 -9 16 -1 29 9 14 6
30 -14 72 -25 52 -50 69 -65 45z"/>
<path d="M14900 5956 c0 -8 5 -18 10 -21 6 -3 10 1 10 9 0 8 -4 18 -10 21 -5
3 -10 -1 -10 -9z"/>
<path d="M14887 5903 c-3 -5 -3 -23 2 -39 6 -21 14 -29 29 -28 11 0 20 -4 19
-10 -1 -6 5 -11 13 -11 20 0 14 31 -11 58 -10 11 -19 17 -19 12 0 -5 -6 -1
-13 10 -8 10 -17 14 -20 8z"/>
<path d="M14940 5769 c0 -16 20 -49 30 -49 5 0 4 13 -1 30 -11 29 -29 41 -29
19z"/>
<path d="M15010 5670 c0 -5 5 -10 11 -10 5 0 7 5 4 10 -3 6 -8 10 -11 10 -2 0
-4 -4 -4 -10z"/>
<path d="M15046 5625 c4 -11 7 -28 8 -37 0 -10 4 -18 8 -18 12 0 9 23 -8 50
-10 16 -13 18 -8 5z"/>
<path d="M14990 5616 c0 -7 7 -19 15 -26 13 -11 15 -8 15 14 0 16 -5 26 -15
26 -8 0 -15 -6 -15 -14z"/>
<path d="M15160 5310 c0 -8 8 -24 16 -35 16 -19 16 -19 9 5 -9 31 -25 50 -25
30z"/>
<path d="M15271 5064 c0 -11 3 -14 6 -6 3 7 2 16 -1 19 -3 4 -6 -2 -5 -13z"/>
<path d="M15290 4929 c0 -5 5 -7 10 -4 6 3 10 8 10 11 0 2 -4 4 -10 4 -5 0
-10 -5 -10 -11z"/>
<path d="M15280 4870 c0 -5 5 -10 11 -10 5 0 7 5 4 10 -3 6 -8 10 -11 10 -2 0
-4 -4 -4 -10z"/>
<path d="M15361 4818 c-1 -15 4 -30 9 -33 6 -3 8 -18 4 -33 -4 -23 -4 -24 6
-9 9 14 8 28 -4 60 -12 36 -15 38 -15 15z"/>
<path d="M15480 4033 c0 -15 5 -35 10 -43 7 -11 10 -6 10 22 0 20 -4 40 -10
43 -6 4 -10 -6 -10 -22z"/>
<path d="M15510 3870 c7 -40 16 -57 24 -49 6 6 -17 89 -25 89 -3 0 -3 -18 1
-40z"/>
<path d="M15550 3657 c0 -23 4 -36 10 -32 13 8 13 35 0 55 -7 11 -10 5 -10
-23z"/>
<path d="M15527 3665 c-4 -8 -2 -17 3 -20 6 -4 10 3 10 14 0 25 -6 27 -13 6z"/>
<path d="M15567 3529 c-10 -37 -8 -49 8 -49 16 0 18 23 6 54 -7 18 -8 18 -14
-5z"/>
<path d="M15611 3460 c0 -8 4 -22 9 -30 12 -18 12 -2 0 25 -6 13 -9 15 -9 5z"/>
<path d="M15615 3354 c3 -78 3 -77 20 -70 9 3 15 0 15 -9 0 -8 5 -15 10 -15
18 0 10 30 -14 51 -16 14 -22 27 -19 44 3 13 0 31 -5 41 -7 13 -9 2 -7 -42z"/>
<path d="M15625 3238 c17 -57 30 -88 37 -88 4 0 8 7 8 15 0 8 5 15 10 15 6 0
10 -5 10 -12 0 -6 2 -9 5 -7 2 3 -1 23 -7 45 -10 36 -12 37 -18 14 l-6 -25
-17 33 c-20 37 -31 42 -22 10z"/>
<path d="M15760 2883 c0 -13 5 -23 10 -23 13 0 13 11 0 30 -8 12 -10 11 -10
-7z"/>
<path d="M15807 2725 c-8 -20 -4 -29 11 -24 5 2 6 13 2 23 -6 19 -7 19 -13 1z"/>
<path d="M15825 2330 c3 -5 8 -10 11 -10 2 0 4 5 4 10 0 6 -5 10 -11 10 -5 0
-7 -4 -4 -10z"/>
<path d="M16083 1915 c3 -11 8 -30 12 -42 4 -14 2 -23 -4 -23 -6 0 -11 -9 -11
-21 0 -12 5 -19 13 -16 15 5 13 95 -3 111 -9 8 -11 6 -7 -9z"/>
<path d="M16080 1782 c0 -11 41 -34 48 -27 4 4 -2 13 -12 21 -22 15 -36 18
-36 6z"/>
<path d="M16126 1671 c-1 -3 -2 -15 -2 -26 1 -30 30 -25 34 6 2 18 -2 26 -13
26 -9 0 -17 -3 -19 -6z"/>
<path d="M16145 1590 c-3 -5 -1 -10 4 -10 6 0 11 5 11 10 0 6 -2 10 -4 10 -3
0 -8 -4 -11 -10z"/>
<path d="M11437 1080 c-3 -11 -1 -20 4 -20 5 0 9 9 9 20 0 11 -2 20 -4 20 -2
0 -6 -9 -9 -20z"/>
<path d="M4602 644 c-18 -14 -32 -34 -32 -45 0 -17 5 -18 41 -13 l42 7 -19
-32 c-13 -22 -15 -34 -8 -39 6 -4 15 -18 19 -31 4 -14 3 -21 -2 -18 -5 4 -10
0 -10 -8 0 -8 9 -15 19 -15 25 0 23 -12 -7 -40 -23 -21 -34 -50 -19 -50 3 0
21 7 39 16 22 10 40 30 54 59 l20 43 -20 60 c-13 40 -28 63 -44 72 -14 7 -25
21 -25 31 0 29 -14 29 -48 3z"/>
<path d="M3316 605 c4 -8 10 -15 15 -15 5 0 9 7 9 15 0 8 -7 15 -15 15 -9 0
-12 -6 -9 -15z"/>
<path d="M3350 562 c0 -4 7 -17 15 -27 8 -11 30 -42 47 -69 43 -66 209 -229
221 -217 6 6 -10 28 -42 59 -28 27 -51 52 -51 55 0 8 -32 48 -80 98 -19 20
-45 47 -56 60 -30 33 -54 51 -54 41z"/>
<path d="M4265 450 c-3 -6 1 -7 9 -4 18 7 21 14 7 14 -6 0 -13 -4 -16 -10z"/>
<path d="M4475 290 c-3 -6 1 -7 9 -4 18 7 21 14 7 14 -6 0 -13 -4 -16 -10z"/>
<path d="M4420 268 c-14 -6 -36 -14 -49 -19 -13 -6 -22 -12 -19 -14 6 -7 97
25 104 36 7 11 -4 11 -36 -3z"/>
<path d="M3665 210 c3 -5 8 -10 11 -10 2 0 4 5 4 10 0 6 -5 10 -11 10 -5 0 -7
-4 -4 -10z"/>
</g>
</svg>
